<?xml version="1.0" encoding="utf-8"?>
<!-- Generator: Adobe Illustrator 19.0.0, SVG Export Plug-In . SVG Version: 6.00 Build 0)  -->
<svg version="1.1" id="Layer_1" xmlns="http://www.w3.org/2000/svg" xmlns:xlink="http://www.w3.org/1999/xlink" x="0px" y="0px"
	 viewBox="0 0 81.4 81.4" style="enable-background:new 0 0 81.4 81.4;" xml:space="preserve">
<style type="text/css">
	.st0{clip-path:url(#SVGID_2_);fill: #fff;}
</style>
<g>
	<defs>
		<rect id="SVGID_1_" y="0" width="81.4" height="81.4"/>
	</defs>
	<clipPath id="SVGID_2_">
		<use xlink:href="#SVGID_1_"  style="overflow:visible;"/>
	</clipPath>
	<path class="st0" d="M40.7,81.4C18.2,81.4,0,63.1,0,40.7C0,18.2,18.2,0,40.7,0s40.7,18.2,40.7,40.7C81.4,63.1,63.1,81.4,40.7,81.4
		 M40.7,3.4C20.1,3.4,3.4,20.1,3.4,40.7s16.7,37.3,37.3,37.3c20.5,0,37.3-16.7,37.3-37.3S61.2,3.4,40.7,3.4"/>
	<path class="st0" d="M30.4,48.2c0,2.2,0.8,4.4,2.5,6.1c1.7,1.7,3.9,2.5,6.1,2.5c0.5,0,0.9-0.4,0.9-0.9c0-2.2-0.8-4.4-2.5-6.1
		c-1.7-1.7-3.9-2.5-6.1-2.5C30.8,47.4,30.4,47.8,30.4,48.2"/>
	<path class="st0" d="M44,49.8c-1.7,1.7-2.5,3.9-2.5,6.1c0,0.5,0.4,0.9,0.9,0.9c2.2,0,4.4-0.8,6.1-2.5c1.7-1.7,2.5-3.9,2.5-6.1
		c0-0.5-0.4-0.9-0.9-0.9C47.8,47.3,45.6,48.2,44,49.8"/>
	<path class="st0" d="M30.4,39.6c0,2.2,0.8,4.4,2.5,6.1c1.7,1.7,3.9,2.5,6.1,2.5c0.5,0,0.9-0.4,0.9-0.9c0-2.2-0.8-4.4-2.5-6.1
		c-1.7-1.7-3.9-2.5-6.1-2.5C30.8,38.7,30.4,39.1,30.4,39.6"/>
	<path class="st0" d="M50,38.7c-2.2,0-4.4,0.8-6.1,2.5c-1.7,1.7-2.5,3.9-2.5,6.1c0,0.5,0.4,0.9,0.9,0.9c2.2,0,4.4-0.8,6.1-2.5
		c1.7-1.7,2.5-3.9,2.5-6.1C50.9,39.1,50.5,38.7,50,38.7"/>
	<path class="st0" d="M31.3,30c-0.5,0-0.9,0.4-0.9,0.9c0,2.2,0.8,4.4,2.5,6.1c1.7,1.7,3.9,2.5,6.1,2.5c0.5,0,0.9-0.4,0.9-0.9
		c0-2.2-0.8-4.4-2.5-6.1C35.7,30.8,33.5,30,31.3,30"/>
	<path class="st0" d="M44,32.5c-1.7,1.7-2.5,3.9-2.5,6.1c0,0.5,0.4,0.9,0.9,0.9c2.2,0,4.4-0.8,6.1-2.5c1.7-1.7,2.5-3.9,2.5-6.1
		c0-0.5-0.4-0.9-0.9-0.9C47.8,30,45.6,30.8,44,32.5"/>
	<path class="st0" d="M31.3,21.3c-0.5,0-0.9,0.4-0.9,0.9c0,2.2,0.8,4.4,2.5,6.1c1.7,1.7,3.9,2.5,6.1,2.5c0.5,0,0.9-0.4,0.9-0.9
		c0-2.2-0.8-4.4-2.5-6.1C35.7,22.1,33.5,21.3,31.3,21.3"/>
	<path class="st0" d="M44,23.8c-1.7,1.7-2.5,3.9-2.5,6.1c0,0.5,0.4,0.9,0.9,0.9c2.2,0,4.4-0.8,6.1-2.5c1.7-1.7,2.5-3.9,2.5-6.1
		c0-0.5-0.4-0.9-0.9-0.9C47.8,21.3,45.6,22.1,44,23.8"/>
	<path class="st0" d="M37.5,18.5c0,2.4,1,4.5,2.5,6.1c0.3,0.3,0.9,0.3,1.3,0c1.6-1.5,2.6-3.7,2.6-6.1c0-2.4-1-4.5-2.6-6.1
		c-0.3-0.3-0.9-0.3-1.3,0C38.5,14,37.5,16.1,37.5,18.5"/>
	<path class="st0" d="M41,69.2c0.7,0,1.3-0.6,1.3-1.3v-8.3c0-0.7-0.6-1.3-1.3-1.3h-0.8c-0.7,0-1.3,0.6-1.3,1.3l0,8.3
		c0,0.7,0.6,1.3,1.3,1.3L41,69.2z"/>
</g>
</svg>
